<?xml version="1.0" standalone="no"?>
<!DOCTYPE svg PUBLIC "-//W3C//DTD SVG 20010904//EN"
 "http://www.w3.org/TR/2001/REC-SVG-20010904/DTD/svg10.dtd">
<svg version="1.0" xmlns="http://www.w3.org/2000/svg"
 width="442.000000pt" height="442.000000pt" viewBox="0 0 442.000000 442.000000"
 preserveAspectRatio="xMidYMid meet">
<metadata>
Created by potrace 1.11, written by Peter Selinger 2001-2013
</metadata>
<g transform="translate(0.000000,442.000000) scale(0.100000,-0.100000)"
fill="#000000" stroke="none">
<path d="M2028 4385 c-1 -1 -37 -6 -77 -9 -41 -4 -77 -9 -80 -11 -4 -2 -31 -6
-61 -10 -30 -4 -58 -9 -61 -11 -3 -2 -20 -6 -37 -9 -17 -3 -83 -21 -145 -40
-483 -146 -911 -465 -1186 -885 -65 -98 -68 -103 -131 -230 -101 -200 -178
-443 -206 -646 -3 -27 -8 -58 -11 -69 -12 -51 -10 -427 4 -530 17 -138 70
-350 118 -480 35 -95 144 -323 168 -355 7 -8 21 -31 31 -50 11 -19 29 -47 40
-62 12 -15 37 -48 56 -75 99 -138 265 -309 405 -418 237 -185 505 -317 795
-394 111 -29 130 -33 230 -47 25 -3 56 -8 70 -11 14 -3 111 -7 215 -8 213 -4
310 5 505 47 97 20 299 84 380 120 533 235 935 636 1157 1158 74 173 131 378
149 530 3 25 9 72 14 105 15 107 4 437 -19 570 -84 474 -291 872 -624 1198
-348 340 -765 543 -1262 612 -50 7 -430 16 -437 10z"/>
</g>
</svg>
